<svg id="Layer_1" data-name="Layer 1" xmlns="http://www.w3.org/2000/svg" viewBox="0 0 738.96 125.8"><defs><style>.cls-1,.cls-3{fill:#fff;}.cls-2{fill:none;}.cls-3{fill-rule:evenodd;}</style></defs><polygon class="cls-1" points="506.18 99.39 506.18 47.85 507.24 47.85 507.24 99.39 506.18 99.39 506.18 99.39"/><path class="cls-2" d="M541.16,52.32c-.33,1.07-.73,2.14-1.1,3l-2.5,6.36h7.13l-2.47-6.36h0C541.85,54.46,541.48,53.38,541.16,52.32Z"/><path class="cls-1" d="M536.71,63.75h8.82L548,69.69h2.48l-8.84-21.8h-.83l-8.84,21.8h2.41Zm8-2h-7.13l2.5-6.36c.37-.9.77-2,1.1-3,.32,1.06.69,2.14,1.06,3h0Z"/><path class="cls-1" d="M565.53,63.91c0-3.47-2.35-5.3-6.13-6.72-2.68-1-3.82-2.29-3.82-3.92S556.92,50,559.53,50a7.53,7.53,0,0,1,4,1.21l.13.09.52-2.07-.06,0A8.42,8.42,0,0,0,559.59,48c-4.32,0-6.36,2.77-6.37,5.44s1.84,4.91,5.64,6.23c2.94,1,4.21,2.35,4.21,4.49s-1.82,3.77-4.4,3.77a10.07,10.07,0,0,1-6.28-2.27l-.23-.17.71,2.94,0,0a10,10,0,0,0,5.67,1.64C562.82,70.05,565.52,67.62,565.53,63.91Z"/><path class="cls-1" d="M574.82,57.19c-2.68-1-3.82-2.29-3.82-3.92S572.34,50,574.94,50a7.54,7.54,0,0,1,4,1.21l.13.09.51-2.07-.05,0A8.42,8.42,0,0,0,575,48c-4.33,0-6.36,2.77-6.37,5.44s1.84,4.91,5.64,6.23c2.94,1,4.21,2.35,4.21,4.48s-1.82,3.78-4.41,3.78a10.07,10.07,0,0,1-6.27-2.27l-.23-.17.71,2.94,0,0A10,10,0,0,0,574,70.05c4.25,0,7-2.43,7-6.13C581,60.44,578.6,58.61,574.82,57.19Z"/><polygon class="cls-1" points="595.8 69.69 595.8 67.56 585.82 67.56 585.82 60.01 593.05 60.01 593.05 57.88 585.82 57.88 585.82 50.45 594.64 50.45 594.64 48.33 583.39 48.33 583.39 69.69 583.5 69.69 595.8 69.69"/><polygon class="cls-1" points="604.15 69.69 606.58 69.69 606.58 50.45 613.88 50.45 613.88 48.33 596.89 48.33 596.89 50.45 604.15 50.45 604.15 69.69"/><path class="cls-2" d="M609.9,82c-.32,1.06-.73,2.14-1.1,3l-2.5,6.36h7.13L611,85.06h0C610.59,84.15,610.22,83.08,609.9,82Z"/><path class="cls-2" d="M567.66,82c-.33,1.06-.73,2.14-1.1,3l-2.5,6.36h7.13l-2.47-6.36h0C568.35,84.16,568,83.08,567.66,82Z"/><path class="cls-1" d="M552.37,78,546.54,90c-1,2-1.88,3.92-2.66,5.8-.82-1.92-1.79-4-2.69-5.8L535.32,78h-1.58L532,99.38h2.23l.87-11.07c.12-1.6.25-3.46.32-5.17.8,1.79,1.74,3.76,2.5,5.34l5.44,11.14h.85l5.41-11.14c.78-1.63,1.77-3.65,2.5-5.36.07,1.7.19,3.47.32,5.19l.9,11.07h2.36L554,78Z"/><path class="cls-1" d="M567.33,77.59h-.07l-8.84,21.8h2.41l2.38-5.94H572l2.42,5.94h2.48l-8.84-21.8Zm3.86,13.83h-7.13l2.5-6.36c.37-.9.77-2,1.1-3,.32,1.06.69,2.14,1.06,3h0Z"/><path class="cls-1" d="M595.67,89.4c0,1.73,0,3.59.06,5.42-1.38-1.71-3.27-3.91-4.68-5.52L581.2,78h-1.71V99.38h2.43V87.61c0-1.87,0-3.79-.07-5.69,1.45,1.73,3.32,4,5.06,6l10.44,12h.75V78h-2.43Z"/><path class="cls-1" d="M609.57,77.59h-.07l-8.84,21.79h2.41l2.39-5.93h8.81l2.43,5.93h2.47l-8.84-21.79Zm3.86,13.83H606.3l2.5-6.36c.37-.9.78-2,1.1-3,.32,1.06.69,2.13,1.07,3h0ZM611.06,85Z"/><path class="cls-1" d="M631.15,91.13h5.58v5.08a9.86,9.86,0,0,1-5.34,1.38c-4.87,0-9.12-3.34-9.12-8.85a8.79,8.79,0,0,1,9.09-9,11.13,11.13,0,0,1,5.91,1.65l.12.07.51-2.17-.06,0a12.74,12.74,0,0,0-6.72-1.64c-5.71,0-11.3,4.12-11.31,11s5.5,11,11.45,11a12.55,12.55,0,0,0,7.79-2.31l0,0V89.1h-7.94Z"/><polygon class="cls-1" points="645.18 89.7 652.41 89.7 652.41 87.57 645.18 87.57 645.18 80.15 654 80.15 654 78.02 642.76 78.02 642.76 99.38 642.86 99.38 655.17 99.38 655.17 97.26 645.18 97.26 645.18 89.7"/><path class="cls-1" d="M679,78,673.14,90c-1,2-1.87,3.92-2.66,5.8-.81-1.92-1.79-4-2.69-5.8L661.92,78h-1.58l-1.71,21.36h2.23l.87-11.07c.12-1.6.25-3.46.32-5.17.8,1.79,1.74,3.76,2.5,5.34L670,99.62h.85l5.41-11.14c.78-1.63,1.77-3.65,2.5-5.36.07,1.7.19,3.47.32,5.19l.9,11.07h2.37L680.56,78Z"/><polygon class="cls-1" points="687.59 89.7 694.82 89.7 694.82 87.57 687.59 87.57 687.59 80.15 696.41 80.15 696.41 78.02 685.17 78.02 685.17 99.38 685.27 99.38 697.58 99.38 697.58 97.26 687.59 97.26 687.59 89.7"/><path class="cls-1" d="M716.9,89.4c0,1.73,0,3.59.06,5.42-1.38-1.7-3.27-3.91-4.69-5.52L702.42,78h-1.7V99.39h2.43V87.61c0-1.87,0-3.79-.06-5.69,1.44,1.73,3.31,4,5,6l10.44,12h.75V78H716.9Z"/><polygon class="cls-1" points="721.97 78.02 721.97 80.15 729.24 80.15 729.24 99.39 731.66 99.39 731.66 80.15 738.96 80.15 738.96 78.02 721.97 78.02"/><path class="cls-1" d="M268.15,57.8l-.34-9.89H261V99.4h7.16V74.16c0-14,8.41-20.79,18.19-20.79h1.13V47.23C276.93,46.87,270.31,51.55,268.15,57.8Z"/><path class="cls-3" d="M62.79,0a62.9,62.9,0,1,0,63,62.79A62.9,62.9,0,0,0,62.79,0Zm3,96s-19.79-8.51-39-1.4c0,0,19.2-25,19.2-74.16,0,0,4.67,21.63,15.45,64.22,0,0,.62,2.87,2.75,3.68A3.81,3.81,0,0,0,68.83,87c2.52-3.15,9.7-14.47,13.2-49,0,0,9.4,35.65,16,58.35C98.06,96.36,84.55,103.21,65.83,96Z"/><polygon class="cls-1" points="197.78 59.62 156.18 59.62 156.18 26.89 148.57 26.89 148.57 99.39 156.18 99.39 156.18 66.21 197.78 66.21 197.78 99.39 205.39 99.39 205.39 26.89 197.78 26.89 197.78 59.62"/><path class="cls-1" d="M231.79,46.77c-5.8,0-11.48,1.37-15.46,4.1l1.48,6A26.33,26.33,0,0,1,231.45,53c7.73,0,12.16,4,12.16,10.22v4.89L229.86,69.5c-8.41.8-16.48,5.8-16.48,15.92,0,8.41,6.82,15.11,16.48,15.11a17.83,17.83,0,0,0,13.75-6v4.89h7.26V63.94C250.88,52.91,242.81,46.77,231.79,46.77ZM243.61,81.1c0,8.07-7.39,13.29-13.53,13.29-5.45,0-9.77-3.86-9.77-9,0-5.57,4.09-9.55,10.68-10.12l12.62-1.14Z"/><path class="cls-1" d="M314.3,46.77c-5,0-9.09,1.14-11.71,3V18.48h-7.16V95.76a34.26,34.26,0,0,0,18,4.77c16.59,0,28.41-10.8,28.41-27C341.8,57.68,329.19,46.77,314.3,46.77Zm-.91,47.4a24.16,24.16,0,0,1-10.8-2.39V56.66a19.68,19.68,0,0,1,11.71-3.52,20,20,0,0,1,20.23,20.34C334.53,85.64,326.23,94.17,313.39,94.17Z"/><path class="cls-1" d="M375.48,46.77c-15.34,0-27.16,11.26-27.16,26.94s11.82,26.82,27.16,26.82,27-11.14,27-26.82S390.83,46.77,375.48,46.77Zm0,47.4c-11.14,0-19.89-8.41-19.89-20.46s8.75-20.57,19.89-20.57c10.91,0,19.78,8.52,19.78,20.57S386.39,94.17,375.48,94.17Z"/><path class="cls-1" d="M446.62,81.89c0,7.16-5.79,12.39-14.66,12.39-9.2,0-14.2-5.23-14.2-12.39v-34H410.6V82.57c0,11.26,8.41,18,19.66,18,9.09,0,14.09-3.41,16.82-7.39l.23,6.26h6.48V47.91h-7.17Z"/><path class="cls-1" d="M488.22,47.23c-9.09,0-15.69,4.32-17.84,10.57L470,47.91h-6.81V99.4h7.16V74.16c0-14,8.41-20.79,18.18-20.79h1.13Z"/></svg>