<svg id="Layer_1" data-name="Layer 1" xmlns="http://www.w3.org/2000/svg" viewBox="0 0 2592.6 441.38"><defs><style>.cls-1{fill:#35404a;}.cls-2{fill:none;}.cls-3,.cls-4{fill:#005a7a;}.cls-4,.cls-5{fill-rule:evenodd;}.cls-5{fill:#fff;}</style></defs><polygon class="cls-1" points="1775.91 348.71 1775.91 167.89 1779.61 167.89 1779.61 348.71 1775.91 348.71 1775.91 348.71"/><path class="cls-2" d="M1898.62,183.57c-1.13,3.73-2.54,7.51-3.85,10.66L1886,216.55h25l-8.66-22.32h0C1901.05,191.07,1899.74,187.29,1898.62,183.57Z"/><path class="cls-1" d="M1883,223.67H1914l8.49,20.83h8.69l-31-76.47h-2.93l-31,76.47h8.45Zm28-7.12h-25l8.77-22.32c1.31-3.15,2.72-6.93,3.85-10.66,1.12,3.72,2.43,7.5,3.74,10.66h0Z"/><path class="cls-1" d="M1984.15,224.24c0-12.18-8.24-18.61-21.53-23.6-9.39-3.61-13.38-8-13.39-13.74,0-5.5,4.7-11.39,13.84-11.4a26.3,26.3,0,0,1,14.1,4.24l.43.31,1.82-7.27-.2-.14c-3.11-2.15-9.09-4.37-15.91-4.37-15.18,0-22.34,9.71-22.36,19.1,0,9.83,6.47,17.2,19.79,21.85,10.31,3.62,14.76,8.22,14.77,15.73,0,7.92-6.41,13.23-15.46,13.25-8.52,0-15.65-3.1-22-8l-.8-.6,2.47,10.3.11.07c4.15,3,11.19,5.77,19.88,5.77C1974.61,245.76,1984.12,237.24,1984.15,224.24Z"/><path class="cls-1" d="M2016.72,200.64c-9.39-3.6-13.39-8-13.39-13.74,0-5.5,4.69-11.39,13.84-11.4a26.5,26.5,0,0,1,14.1,4.24l.42.31,1.83-7.27-.21-.14c-3.1-2.15-9.08-4.37-15.9-4.37-15.19,0-22.34,9.72-22.36,19.09,0,9.84,6.46,17.21,19.79,21.86,10.31,3.63,14.75,8.22,14.76,15.72,0,7.93-6.4,13.24-15.45,13.26-8.52,0-15.66-3.1-22-8l-.8-.6,2.47,10.29.11.08c4.14,3,11.19,5.77,19.88,5.77,14.91,0,24.41-8.54,24.44-21.53C2038.25,212.06,2030,205.63,2016.72,200.64Z"/><polygon class="cls-1" points="2090.35 244.5 2090.35 237.03 2055.34 237.03 2055.34 210.52 2080.7 210.52 2080.7 203.06 2055.33 203.06 2055.33 177.02 2086.27 177.02 2086.27 169.55 2046.81 169.55 2046.81 244.5 2047.18 244.5 2090.35 244.5"/><polygon class="cls-1" points="2119.65 244.5 2128.17 244.5 2128.17 177.01 2153.76 177.01 2153.76 169.55 2094.18 169.55 2094.18 177.01 2119.65 177.01 2119.65 244.5"/><path class="cls-2" d="M2139.81,287.75c-1.13,3.73-2.55,7.51-3.86,10.68l-8.76,22.31h25l-8.66-22.31h0C2142.24,295.25,2140.92,291.47,2139.81,287.75Z"/><path class="cls-2" d="M1991.59,287.76c-1.13,3.73-2.54,7.51-3.85,10.67L1979,320.74h25l-8.64-22.31h0C1994,295.26,1992.72,291.48,1991.59,287.76Z"/><path class="cls-1" d="M1938,273.73l-20.46,41.86c-3.41,7-6.59,13.74-9.34,20.35-2.87-6.74-6.27-13.88-9.44-20.35l-20.59-41.86h-5.55l-6,74.95h7.81l3-38.84c.44-5.61.89-12.15,1.13-18.16,2.82,6.28,6.12,13.21,8.78,18.76l19.07,39.06h3l19-39.06c2.75-5.74,6.24-12.83,8.78-18.82.24,6,.69,12.19,1.13,18.22l3.16,38.84h8.29l-6.23-74.95Z"/><path class="cls-1" d="M1990.44,272.22h-.24l-31,76.47h8.46l8.36-20.83h31l8.48,20.83h8.7l-31-76.47ZM2004,320.74h-25l8.76-22.31c1.31-3.16,2.72-6.94,3.85-10.67,1.13,3.72,2.43,7.5,3.75,10.67h0Z"/><path class="cls-1" d="M2089.9,313.66c0,6.07,0,12.59.2,19-4.85-6-11.47-13.72-16.44-19.37l-34.56-39.57h-6v74.95h8.51V307.37c0-6.55,0-13.3-.21-20,5.07,6.09,11.63,13.88,17.74,20.9l36.64,42h2.62V273.73h-8.51Z"/><path class="cls-1" d="M2138.65,272.23h-.25l-31,76.46h8.46l8.38-20.84h30.93l8.49,20.84h8.68l-31-76.46Zm13.55,48.51h-25l8.76-22.31c1.31-3.17,2.73-6.95,3.86-10.68,1.11,3.72,2.43,7.5,3.74,10.68h0Zm-8.32-22.44Z"/><path class="cls-1" d="M2214.37,319.71h19.55v17.84c-3.67,2.58-10.64,4.84-18.72,4.83-17.07,0-32-11.71-32-31.05,0-19.58,15.15-31.4,31.87-31.41a39.22,39.22,0,0,1,20.74,5.76l.42.27,1.81-7.61-.22-.13c-5.66-3.53-13.75-5.75-23.58-5.76-20.05.05-39.64,14.46-39.69,38.76,0,24,19.29,38.72,40.16,38.76,11.35,0,20.62-2.93,27.33-8.11l.14-.1V312.6h-27.83Z"/><polygon class="cls-1" points="2263.6 314.71 2288.96 314.71 2288.96 307.24 2263.59 307.24 2263.59 281.2 2294.54 281.2 2294.54 273.73 2255.08 273.73 2255.08 348.69 2255.44 348.69 2298.63 348.69 2298.63 341.22 2263.6 341.22 2263.6 314.71"/><path class="cls-1" d="M2382.15,273.73l-20.46,41.86c-3.4,7-6.58,13.74-9.34,20.33-2.86-6.72-6.27-13.86-9.44-20.33l-20.58-41.86h-5.55l-6,75h7.82l3-38.85c.44-5.61.89-12.15,1.13-18.16,2.83,6.28,6.12,13.21,8.79,18.76l19.06,39.06h3l18.95-39.06c2.76-5.74,6.24-12.83,8.78-18.81.25,5.95.69,12.18,1.13,18.21l3.16,38.85h8.29l-6.23-75Z"/><polygon class="cls-1" points="2412.39 314.71 2437.76 314.71 2437.76 307.25 2412.39 307.25 2412.39 281.2 2443.34 281.2 2443.34 273.73 2403.88 273.73 2403.88 348.69 2404.24 348.69 2447.41 348.69 2447.41 341.22 2412.39 341.22 2412.39 314.71"/><path class="cls-1" d="M2515.22,313.66c0,6.07,0,12.59.22,19-4.86-6-11.49-13.72-16.46-19.38l-34.55-39.56h-6v74.95H2467V307.38c0-6.55,0-13.31-.22-20,5.07,6.1,11.62,13.88,17.73,20.9l36.64,42h2.62V273.74h-8.51Z"/><polygon class="cls-1" points="2533.01 273.73 2533.01 281.2 2558.5 281.2 2558.5 348.69 2567 348.69 2567 281.2 2592.6 281.2 2592.6 273.73 2533.01 273.73"/><path class="cls-3" d="M940.8,202.78l-1.19-34.69H915.68V348.72H940.8V260.2c0-49,29.51-73,63.8-73h4l0-21.53C971.61,164.43,948.38,180.85,940.8,202.78Z"/><path class="cls-4" d="M441.37,220.3c.22,121.88-98.41,220.86-220.29,221.08S.21,343,0,221.09,98.41.22,220.29,0,441.16,98.4,441.37,220.3Z"/><path class="cls-5" d="M94.08,331.88s67.34-87.64,67.34-260.15c0,0,16.39,75.85,54.22,225.29,0,0,2.18,10.07,9.64,12.93,6,2.31,11.78.8,16.2-4.73,8.85-11.08,34-50.78,46.33-171.86,0,0,33,125.09,56.24,204.72,0,0-47.43,24-113.07-1.27C231,336.81,161.51,307,94.08,331.88Z"/><polygon class="cls-3" points="693.89 209.16 547.96 209.16 547.96 94.32 521.24 94.32 521.24 348.72 547.96 348.72 547.96 232.29 693.89 232.29 693.89 348.72 720.61 348.72 720.61 94.32 693.89 94.32 693.89 209.16"/><path class="cls-3" d="M813.22,164.1c-20.34,0-40.28,4.79-54.23,14.36l5.18,21.13c12-8,30.7-13.55,47.85-13.55,27.12,0,42.67,14,42.67,35.88v17.15l-48.25,4.78c-29.51,2.79-57.82,20.33-57.82,55.83,0,29.5,23.93,53,57.82,53,19.38,0,37.55-8.12,48.27-21.21v17.13h25.45V277.88l.05,3.53v-57.1C880.21,185.63,851.9,164.1,813.22,164.1Zm41.47,120.43c0,28.3-25.92,46.65-47.45,46.65-19.14,0-34.3-13.56-34.3-31.5,0-19.54,14.36-33.5,37.49-35.5l44.26-4Z"/><path class="cls-3" d="M1102.7,164.1c-17.55,0-31.9,4-41.07,10.37V64.82H1036.5V336c15.16,9.57,37.49,16.75,63,16.75,58.22,0,99.7-37.88,99.7-94.91C1199.2,202.38,1154.93,164.1,1102.7,164.1Zm-3.2,166.28a84.66,84.66,0,0,1-37.87-8.37V198.79c9.17-7.17,24.32-12.35,41.07-12.35,37.48,0,71,28.7,71,71.36S1144.57,330.38,1099.5,330.38Z"/><path class="cls-3" d="M1317.36,164.1c-53.83,0-95.3,39.48-95.3,94.51s41.47,94.1,95.3,94.1,94.9-39.07,94.9-94.1S1371.19,164.1,1317.36,164.1Zm0,166.28c-39.08,0-69.78-29.51-69.78-71.77s30.7-72.17,69.78-72.17c38.28,0,69.38,29.9,69.38,72.17S1355.64,330.38,1317.36,330.38Z"/><path class="cls-3" d="M1567,287.32c0,25.12-20.33,43.46-51.43,43.46-32.31,0-49.85-18.34-49.85-43.46V168.09h-25.11V289.71c0,39.47,29.5,63,69,63,31.89,0,49.43-12,59-25.92l.79,21.93h22.74V168.09H1567Z"/><path class="cls-3" d="M1712.9,165.7c-31.91,0-55,15.15-62.61,37.08l-1.2-34.69h-23.92V348.72h25.12V260.2c0-49,29.51-73,63.8-73h4Z"/></svg>